<svg width="70" height="73" viewBox="0 0 70 73" fill="none" xmlns="http://www.w3.org/2000/svg">
<path d="M35.0002 71.6566C53.7306 71.6566 68.9063 56.0689 68.9063 36.83C68.9063 17.5911 53.7306 2.00343 35.0002 2.00343C16.2697 2.00343 1.09399 17.5911 1.09399 36.83C1.09399 56.0689 16.2697 71.6566 35.0002 71.6566ZM19.1408 30.6511H35.0002V20.6946C35.0002 19.192 36.7775 18.4337 37.8029 19.501L53.4298 35.6363C54.0724 36.2964 54.0724 37.3496 53.4298 38.0096L37.8029 54.159C36.7638 55.2263 35.0002 54.468 35.0002 52.9654V43.0089H19.1408C18.2385 43.0089 17.5002 42.2506 17.5002 41.3237V32.3362C17.5002 31.4094 18.2385 30.6511 19.1408 30.6511Z" fill="black"/>
</svg>
