<svg width="71" height="73" viewBox="0 0 71 73" fill="none" xmlns="http://www.w3.org/2000/svg">
<path d="M35.0041 2.03058C16.2737 2.03058 1.09795 17.6183 1.09795 36.8571C1.09795 56.096 16.2737 71.6837 35.0041 71.6837C53.7345 71.6837 68.9103 56.096 68.9103 36.8571C68.9103 17.6183 53.7345 2.03058 35.0041 2.03058ZM50.8635 43.036H35.0041V52.9925C35.0041 54.4951 33.2268 55.2534 32.2014 54.1862L16.5745 38.0508C15.9319 37.3908 15.9319 36.3376 16.5745 35.6775L32.2014 19.5281C33.2405 18.4609 35.0041 19.2192 35.0041 20.7218V30.6782H50.8635C51.7658 30.6782 52.5041 31.4366 52.5041 32.3634V41.3509C52.5041 42.2777 51.7658 43.036 50.8635 43.036Z" fill="black"/>
</svg>
